<svg xmlns="http://www.w3.org/2000/svg" viewBox="0 0 76.31 94"><defs><style>.cls-1{fill:#00dfba;}</style></defs><title>Asset 2</title><g id="Layer_2" data-name="Layer 2"><g id="Layer_1-2" data-name="Layer 1"><path class="cls-1" d="M71.25,12.76a5,5,0,0,0-5,5V42A1.12,1.12,0,1,1,64,42V5.93A5.94,5.94,0,0,0,58,0a5.84,5.84,0,0,0-4.28,1.76A6,6,0,0,0,52.1,6V42a1.12,1.12,0,0,1-2.24,0V6.4A6.41,6.41,0,0,0,43.46,0a6.56,6.56,0,0,0-6.4,6.8V42a1.12,1.12,0,0,1-2.24,0V13.17a5.94,5.94,0,0,0-5.93-5.93A6.07,6.07,0,0,0,23,13.55V57.29H36.13a18.07,18.07,0,0,1,13.68,6.26A1.12,1.12,0,0,1,48.11,65a15.84,15.84,0,0,0-12-5.48H21.85l-.15,0h-.06a1.43,1.43,0,0,1-.27-.09l-.06,0a1,1,0,0,1-.2-.15l0,0L15.53,54a10.54,10.54,0,0,0-14.71.2A2.74,2.74,0,0,0,.73,58l21,22.81C30.19,90.19,38.76,94,51.34,94a25.13,25.13,0,0,0,25-25.23V18.06A5.08,5.08,0,0,0,71.25,12.76Z"/></g></g></svg>