<svg xmlns="http://www.w3.org/2000/svg" viewBox="0 0 86.04 93"><defs><style>.cls-1{fill:#fe2bf1;}</style></defs><title>Asset 3</title><g id="Layer_2" data-name="Layer 2"><g id="Layer_1-2" data-name="Layer 1"><path class="cls-1" d="M65.26,28.92V9.61A9.61,9.61,0,0,0,46,9.61V28.38H63A5.06,5.06,0,0,1,65.26,28.92Z"/><path class="cls-1" d="M20.79,28.38V8.88a8,8,0,1,0-16.06,0v24a20.31,20.31,0,0,1,12.8-4.53Z"/><path class="cls-1" d="M77.1,48.46a11.85,11.85,0,0,1-10.24-5.92A17.93,17.93,0,0,1,50.24,53.79h-12a19.76,19.76,0,0,1,9.47,16.85v5.42a1.45,1.45,0,0,1-2.89,0V70.64A16.88,16.88,0,0,0,27.94,53.79h-.26a1.44,1.44,0,0,1-1.44-1.45h0a1.43,1.43,0,0,1,1.44-1.44H50.24a15,15,0,0,0,15-15V33.55A2.26,2.26,0,0,0,63,31.28H17.53A17.48,17.48,0,0,0,4.18,37.47c-.25.28-.48.58-.71.87l-.26.38c-.22.31-.44.63-.63,1L2.39,40c-.21.35-.4.7-.58,1.06a1.51,1.51,0,0,1-.09.18c-.2.42-.38.85-.55,1.28l-.06.17C.94,43.12.8,43.57.67,44l-.05.17c-.12.45-.23.91-.31,1.38a1.16,1.16,0,0,0,0,.18c-.08.47-.15.94-.19,1.41a1,1,0,0,0,0,.17c0,.49-.07,1-.07,1.48,0,1.19.06,2.37.15,3.53A44.24,44.24,0,0,0,44.19,93h5.26A36.63,36.63,0,0,0,86,56.41v-12A11.82,11.82,0,0,1,77.1,48.46Z"/><path class="cls-1" d="M43.15,9.73a9.74,9.74,0,0,0-19.47,0V28.38H43.15Z"/><path class="cls-1" d="M77.1,14.09A9,9,0,0,0,68.16,23v13.6a8.94,8.94,0,0,0,17.88,0V23A9,9,0,0,0,77.1,14.09Z"/></g></g></svg>