<svg xmlns="http://www.w3.org/2000/svg" viewBox="0 0 59.1 95"><defs><style>.cls-1{fill:#586f6b;}</style></defs><title>Asset 1</title><g id="Layer_2" data-name="Layer 2"><g id="Layer_1-2" data-name="Layer 1"><path class="cls-1" d="M19.41,52.38H29.75V41A8.35,8.35,0,0,1,32.37,35l4-28.17A5.87,5.87,0,1,0,24.71,5.16L19.23,42.8a1,1,0,0,1-2.05,0L11.68,5.06A5.87,5.87,0,1,0,.06,6.69C1.58,18,2.73,26.1,3.56,32,5.69,47,6.05,49.5,6.11,60.07A15.38,15.38,0,0,1,19.41,52.38Z"/><path class="cls-1" d="M52.8,65a8.35,8.35,0,0,1-7-3.76A11.59,11.59,0,0,1,35,68.77H30.83A13.26,13.26,0,0,1,37,80v3.62a1,1,0,1,1-2.06,0V80A11.23,11.23,0,0,0,23.73,68.77a1,1,0,0,1-1-1h0a1,1,0,0,1,1-1H35a9.45,9.45,0,0,0,6.14-2.26,9.61,9.61,0,0,0,2.11-2.55,9.38,9.38,0,0,0,1.24-4.47c0-.07,0-.14,0-.21a2,2,0,0,0,0-.43.34.34,0,0,0,0-.1,2.75,2.75,0,0,0-2.7-2.23H19.41A13.3,13.3,0,0,0,6.13,67.74h0a27.13,27.13,0,0,0,8.38,20.12,26.57,26.57,0,0,0,19.87,7.08C48.24,94.05,59.1,82,59.1,67.57V62.12A8.34,8.34,0,0,1,52.8,65Z"/><path class="cls-1" d="M52.8,41.36a6.31,6.31,0,0,0-6.3,6.31v8.88a4.65,4.65,0,0,1,0,.66s0,.1,0,.16a6.3,6.3,0,0,0,12.56-.74v-9A6.31,6.31,0,0,0,52.8,41.36Z"/><path class="cls-1" d="M36.08,35.08l-.27.1-.27.11-.27.14-.24.12-.29.18-.2.13-.3.22-.16.13A6.29,6.29,0,0,0,31.82,41V52.38h9.9a4.87,4.87,0,0,1,2.71.83V47.67h0V41a6.31,6.31,0,0,0-5.66-6.27c-.22,0-.43,0-.65,0s-.4,0-.6,0l-.24,0-.34.05-.28.06-.29.08Z"/></g></g></svg>